<svg xmlns="http://www.w3.org/2000/svg" width="38.839" height="20.264" viewBox="0 0 38.839 20.264">
    <path data-name="Tracé 4496" d="M10.132 13a2.883 2.883 0 0 1-2.871-2.871 2.883 2.883 0 0 1 2.871-2.871A2.883 2.883 0 0 1 13 10.132 2.883 2.883 0 0 1 10.132 13m0 7.261a9.772 9.772 0 0 1-7.177-2.955A9.772 9.772 0 0 1 0 10.132a9.772 9.772 0 0 1 2.955-7.177A9.772 9.772 0 0 1 10.132 0a9.774 9.774 0 0 1 5.319 1.435 9.6 9.6 0 0 1 3.588 4.348h15.029l4.77 4.77-7.05 6.459-3.715-2.7-3.715 2.7-3.166-2.532h-2.153a9.57 9.57 0 0 1-3.314 4.158 9.329 9.329 0 0 1-5.594 1.625m0-2.533a7.156 7.156 0 0 0 4.517-1.625 7.245 7.245 0 0 0 2.66-4.158h4.813l2.28 1.9 3.715-2.66 3.462 2.613 3.588-3.335-2.153-2.148h-15.7a7.232 7.232 0 0 0-2.533-4.074 7 7 0 0 0-4.644-1.71 7.328 7.328 0 0 0-5.387 2.216 7.328 7.328 0 0 0-2.216 5.383 7.328 7.328 0 0 0 2.216 5.383 7.328 7.328 0 0 0 5.383 2.216" style="fill:#002dff"/>
</svg>
