<svg data-name="Icone, Industriel" xmlns="http://www.w3.org/2000/svg" width="26.697" height="27.89" viewBox="0 0 26.697 27.89">
    <defs>
        <clipPath id="o8cilfjq7a">
            <path data-name="Rectangle 1677" style="fill:none" d="M0 0h26.697v27.89H0z"/>
        </clipPath>
    </defs>
    <g data-name="Groupe 2593" style="clip-path:url(#o8cilfjq7a)">
        <path data-name="Tracé 1613" d="M14.9 1.913s-3.791 2.8-6.953 2.8V11.8a4.282 4.282 0 0 0 1.7 3.546c1.109.78 4.422 2.858 4.562 2.946l.695.436.695-.436c.14-.088 3.453-2.165 4.562-2.946a4.283 4.283 0 0 0 1.7-3.546V4.71C18.7 4.71 14.9 1.913 14.9 1.913zm-3.017 8.019 2.454 2.334 4.012-3.816m1.6 18.436a3.025 3.025 0 0 1 2.822-1.839h2.3a3.025 3.025 0 0 1 2.822 1.84m-3.971-3.413a2.434 2.434 0 1 1 0-4.862 3.128 3.128 0 0 1 1.015.2 2.339 2.339 0 0 1 1.541 2.232 2.5 2.5 0 0 1-2.555 2.429zM1.913 26.661a3.025 3.025 0 0 1 2.822-1.839h2.3a3.026 3.026 0 0 1 2.822 1.84m-3.972-3.414a2.434 2.434 0 1 1 0-4.862 2.434 2.434 0 1 1 0 4.862zm5.047 5.874a3.026 3.026 0 0 1 2.822-1.839h2.3a3.026 3.026 0 0 1 2.822 1.839M14.9 25.709a2.434 2.434 0 1 1 2.556-2.431 2.5 2.5 0 0 1-2.556 2.431z" transform="translate(-1.555 -1.573)" style="stroke:#5b607d;stroke-linecap:round;stroke-linejoin:round;fill:none"/>
    </g>
</svg>
