<svg data-name="Icone, EXPORT" xmlns="http://www.w3.org/2000/svg" width="16.014" height="20.762" viewBox="0 0 16.014 20.762">
    <path data-name="Tracé 4480" d="m173.322 21.254-3.557-3.554a.692.692 0 0 0-.491-.2h-7.259a1.744 1.744 0 0 0-1.737 1.737v1.031h-1.038A1.737 1.737 0 0 0 157.509 22v14.535a1.737 1.737 0 0 0 1.73 1.723h9.689a1.737 1.737 0 0 0 1.73-1.737V35.49h1.128a1.744 1.744 0 0 0 1.737-1.737V21.746a.726.726 0 0 0-.2-.491zm-3.356-1.4 1.2 1.2h-1.2zm-.692 16.665a.346.346 0 0 1-.346.353h-9.689a.346.346 0 0 1-.346-.353V21.988a.346.346 0 0 1 .346-.339h1.038v12.1a1.744 1.744 0 0 0 1.737 1.737h7.259zm2.512-2.415h-9.772a.353.353 0 0 1-.353-.353V19.22a.353.353 0 0 1 .353-.339h6.567v2.865a.692.692 0 0 0 .692.692h2.865v11.315a.353.353 0 0 1-.353.353z" transform="translate(-157.509 -17.497)" style="fill:#ffffff"/>
    <path data-name="Tracé 4481" d="M318.54 175.1a.692.692 0 0 0-.983 0l-2.422 2.422a.695.695 0 0 0 .983.983l1.239-1.246v4.388a.692.692 0 1 0 1.384 0v-4.388l1.239 1.246a.695.695 0 1 0 .983-.983z" transform="translate(-308.707 -168.67)" style="fill:#ffffff"/>
</svg>
